<?xml version="1.0" encoding="UTF-8" standalone="no"?>
<!DOCTYPE svg PUBLIC "-//W3C//DTD SVG 1.1//EN" "http://www.w3.org/Graphics/SVG/1.1/DTD/svg11.dtd">
<svg width="100%" height="100%" viewBox="0 0 800 800" version="1.1" xmlns="http://www.w3.org/2000/svg" xmlns:xlink="http://www.w3.org/1999/xlink" xml:space="preserve" xmlns:serif="http://www.serif.com/" style="fill-rule:evenodd;clip-rule:evenodd;stroke-linejoin:round;stroke-miterlimit:2;">
    <path d="M400.12,466.783C482.963,466.783 550.12,399.623 550.12,316.782C550.12,233.94 482.963,166.782 400.12,166.782C317.277,166.782 250.12,233.94 250.12,316.782C250.12,399.623 317.277,466.783 400.12,466.783ZM400.12,400.237C354.03,400.237 316.667,362.873 316.667,316.782C316.667,270.692 354.03,233.329 400.12,233.329C446.21,233.329 483.573,270.692 483.573,316.782C483.573,362.873 446.21,400.237 400.12,400.237Z" style="fill:rgb(250,235,215);"/>
    <path d="M709.067,386.06C752.163,192.939 600.173,0.118 400,0.118C199.883,0.118 47.88,193.203 90.939,386.083C124.174,542.737 258.573,694.883 338.787,774.23C373.14,808.21 426.86,808.21 461.213,774.23C541.43,694.88 675.84,542.72 709.067,386.06ZM400,66.785C557.08,66.785 677.893,219.66 644,371.54C627.72,444.517 591.197,510.05 548.337,570.633C503.547,633.947 452.763,688.813 414.33,726.833C405.953,735.12 394.047,735.12 385.67,726.833C347.237,688.817 296.46,633.953 251.67,570.643C208.806,510.057 172.295,444.537 156.004,371.557C122.146,219.894 243.004,66.785 400,66.785Z" style="fill:rgb(250,235,215);"/>
</svg>
