<?xml version="1.0" encoding="UTF-8" standalone="no"?>
<!DOCTYPE svg PUBLIC "-//W3C//DTD SVG 1.1//EN" "http://www.w3.org/Graphics/SVG/1.1/DTD/svg11.dtd">
<svg width="100%" height="100%" viewBox="0 0 800 800" version="1.1" xmlns="http://www.w3.org/2000/svg" xmlns:xlink="http://www.w3.org/1999/xlink" xml:space="preserve" xmlns:serif="http://www.serif.com/" style="fill-rule:evenodd;clip-rule:evenodd;stroke-linejoin:round;stroke-miterlimit:2;">
    <path d="M305.72,258.579C292.702,245.561 271.597,245.561 258.579,258.579C245.562,271.596 245.562,292.702 258.579,305.719L352.86,400L258.579,494.28C245.562,507.3 245.562,528.403 258.579,541.42C271.597,554.44 292.702,554.44 305.72,541.42L400,447.14L494.283,541.42C507.3,554.44 528.403,554.44 541.423,541.42C554.44,528.403 554.44,507.3 541.423,494.28L447.14,400L541.423,305.719C554.44,292.702 554.44,271.596 541.423,258.579C528.403,245.561 507.3,245.561 494.283,258.579L400,352.86L305.72,258.579Z" style="fill:rgb(255,248,236);"/>
</svg>
