<?xml version="1.0" encoding="UTF-8" standalone="no"?>
<!DOCTYPE svg PUBLIC "-//W3C//DTD SVG 1.1//EN" "http://www.w3.org/Graphics/SVG/1.1/DTD/svg11.dtd">
<svg width="100%" height="100%" viewBox="0 0 800 800" version="1.1" xmlns="http://www.w3.org/2000/svg" xmlns:xlink="http://www.w3.org/1999/xlink" xml:space="preserve" xmlns:serif="http://www.serif.com/" style="fill-rule:evenodd;clip-rule:evenodd;stroke-linecap:round;stroke-linejoin:round;">
    <path d="M700,183.333C700,468.68 468.68,700 183.333,700C170.459,700 157.695,699.53 145.057,698.603C130.554,697.54 123.302,697.01 116.701,693.21C111.234,690.063 106.049,684.483 103.308,678.8C100,671.94 100,663.937 100,647.933L100,554.023C100,540.563 100,533.833 102.215,528.067C104.172,522.97 107.35,518.433 111.47,514.853C116.134,510.8 122.459,508.5 135.107,503.9L242.002,465.03C256.718,459.68 264.076,457.003 271.057,457.457C277.212,457.857 283.136,459.96 288.169,463.527C293.876,467.57 297.904,474.283 305.961,487.713L333.333,533.333C421.663,493.33 493.27,421.63 533.333,333.333L487.713,305.961C474.283,297.904 467.57,293.876 463.527,288.169C459.96,283.136 457.857,277.212 457.457,271.057C457.003,264.076 459.68,256.718 465.03,242.002L503.9,135.107C508.5,122.459 510.8,116.134 514.853,111.47C518.433,107.35 522.97,104.172 528.067,102.215C533.833,100 540.563,100 554.023,100L647.933,100C663.937,100 671.94,100 678.8,103.308C684.483,106.049 690.063,111.234 693.21,116.701C697.01,123.302 697.54,130.554 698.603,145.058C699.53,157.695 700,170.459 700,183.333Z" style="fill:none;fill-rule:nonzero;stroke:rgb(250,235,215);stroke-width:66.67px;"/>
</svg>
