<?xml version="1.0" encoding="UTF-8" standalone="no"?>
<!DOCTYPE svg PUBLIC "-//W3C//DTD SVG 1.1//EN" "http://www.w3.org/Graphics/SVG/1.1/DTD/svg11.dtd">
<svg width="100%" height="100%" viewBox="0 0 800 800" version="1.1" xmlns="http://www.w3.org/2000/svg" xmlns:xlink="http://www.w3.org/1999/xlink" xml:space="preserve" xmlns:serif="http://www.serif.com/" style="fill-rule:evenodd;clip-rule:evenodd;stroke-linejoin:round;stroke-miterlimit:2;">
    <g transform="matrix(0.747586,0,0,0.747586,100.966,100.966)">
        <path d="M400,100C408.84,100 417.32,103.512 423.57,109.763L656.903,343.097C669.92,356.113 669.92,377.22 656.903,390.237C643.887,403.253 622.78,403.253 609.763,390.237L433.333,213.807L433.333,666.667C433.333,685.077 418.41,700 400,700C381.59,700 366.667,685.077 366.667,666.667L366.667,213.807L190.237,390.237C177.219,403.253 156.114,403.253 143.096,390.237C130.079,377.22 130.079,356.113 143.096,343.097L376.43,109.763C382.68,103.512 391.16,100 400,100Z" style="fill:rgb(255,182,57);"/>
    </g>
</svg>
