<?xml version="1.0" standalone="no"?>
<!DOCTYPE svg PUBLIC "-//W3C//DTD SVG 20010904//EN"
 "http://www.w3.org/TR/2001/REC-SVG-20010904/DTD/svg10.dtd">
<svg version="1.0" xmlns="http://www.w3.org/2000/svg"
 width="800.000000pt" height="800.000000pt" viewBox="0 0 800.000000 800.000000"
 preserveAspectRatio="xMidYMid meet">
<metadata>
Created by potrace 1.14, written by Peter Selinger 2001-2017
</metadata>
<g transform="translate(0.000000,800.000000) scale(0.100000,-0.100000)"
fill="#000000" stroke="none">
<path d="M2289 7073 c-242 -251 -562 -652 -811 -1018 -910 -1337 -1430 -2966
-1474 -4615 l-7 -235 103 -167 103 -168 3818 0 3819 0 80 160 c44 88 80 164
80 169 0 6 -291 315 -646 688 -356 373 -660 692 -676 709 l-29 30 26 56 c45
98 66 202 66 328 0 244 -68 417 -226 575 -92 92 -190 152 -322 197 -136 47
-218 58 -478 65 l-240 6 -1118 1171 c-615 644 -1261 1320 -1435 1502 -174 182
-376 392 -447 468 l-130 137 -56 -58z m3768 -3840 l581 -608 -22 -40 c-11 -22
-59 -78 -106 -125 -88 -88 -185 -148 -302 -189 -29 -10 -52 -23 -51 -27 1 -5
135 -237 297 -517 163 -279 296 -509 296 -512 0 -3 -161 -4 -357 -3 l-357 3
-270 492 -271 493 -82 0 -83 0 0 -495 0 -495 -315 0 -315 0 0 1315 0 1315 388
0 389 0 580 -607z m-1677 -173 l0 -240 -130 0 -130 0 0 -805 0 -805 -320 0
-320 0 0 805 0 805 -350 0 -350 0 0 -805 0 -805 -320 0 -320 0 0 805 0 805
-130 0 -130 0 0 240 0 240 1250 0 1250 0 0 -240z"/>
<path d="M5330 2981 l0 -331 223 0 c295 0 372 16 448 92 18 18 44 58 58 88 23
48 26 68 26 155 0 119 -23 183 -87 241 -84 75 -101 79 -400 82 l-268 3 0 -330z"/>
<path d="M7345 4510 c-131 -18 -235 -70 -318 -160 -83 -89 -125 -188 -142
-337 l-7 -63 184 0 184 0 11 70 c18 116 74 170 176 170 65 0 113 -28 140 -80
15 -28 17 -52 15 -122 -4 -75 -9 -95 -41 -160 -71 -142 -214 -291 -544 -567
l-113 -94 0 -144 0 -143 555 0 555 0 0 155 0 155 -297 2 -296 3 74 59 c170
137 358 348 424 476 85 166 92 386 17 535 -56 112 -152 191 -275 225 -77 21
-222 31 -302 20z"/>
</g>
</svg>
