<svg xmlns="http://www.w3.org/2000/svg" id="canvas" viewBox="411.426 349.965 1081.573 246.561"><path d="M 537.26,403.86 C 536.55 402.52, 535.35 400.91, 532.53 400.11 C 529.71 399.32, 527.49 399.13, 523.15 399.89 C 518.81 400.65, 516.19 401.08, 510.81 403.90 C 505.42 406.72, 502.60 408.70, 496.23 413.98 C 489.85 419.27, 486.22 422.52, 478.93 430.31 C 471.63 438.10, 467.30 442.87, 459.75 452.95 C 452.21 463.03, 447.92 469.12, 441.19 480.72 C 434.46 492.32, 430.99 499.11, 426.11 510.95 C 421.24 522.80, 419.12 529.25, 416.82 539.95 C 414.53 550.64, 414.07 555.98, 414.66 564.42 C 415.25 572.86, 416.36 576.66, 419.77 582.13 C 423.19 587.61, 425.94 589.70, 431.75 591.79 C 437.56 593.89, 441.36 593.98, 448.82 592.62 C 456.29 591.26, 460.52 589.63, 469.05 585.00 C 477.58 580.38, 482.36 577.11, 491.47 569.51 C 500.58 561.90, 505.61 557.05, 514.60 546.99 C 523.59 536.92, 528.28 530.89, 536.43 519.19 C 544.58 507.49, 548.66 500.85, 555.34 488.48 C 562.02 476.11, 565.13 469.39, 569.81 457.33 C 574.49 445.27, 576.35 439.07, 578.74 428.20 C 581.14 417.33, 581.66 412.02, 581.78 402.97 C 581.90 393.93, 581.32 389.76, 579.34 382.97 C 577.36 376.18, 575.85 373.26, 571.88 369.03 C 567.91 364.80, 565.06 363.20, 559.48 361.83 C 553.90 360.46, 550.40 360.67, 543.99 362.17 C 537.59 363.68, 534.01 365.38, 527.45 369.35 C 520.89 373.32, 517.25 376.18, 511.19 382.04 C 505.13 387.89, 501.98 391.66, 497.17 398.64 C 492.35 405.62, 490.08 409.70, 487.11 416.92 C 484.15 424.15, 482.94 428.11, 482.35 434.75 C 481.75 441.40, 481.93 444.90, 484.12 450.15 C 486.31 455.40, 488.36 457.93, 493.29 461.03 C 498.22 464.13, 501.50 465.08, 508.78 465.65 C 516.06 466.23, 520.49 465.80, 529.68 463.91 C 538.88 462.02, 544.20 460.28, 554.78 456.19 C 565.36 452.11, 571.30 449.32, 582.58 443.49 C 593.87 437.66, 600.07 434.02, 611.22 427.04 C 622.38 420.05, 628.29 415.91, 638.35 408.54 C 648.41 401.17, 653.48 397.04, 661.54 390.18 C 669.60 383.32, 673.26 379.79, 678.64 374.22 C 684.03 368.66, 686.38 366.29, 688.47 362.36 C 690.57 358.44, 690.55 356.30, 689.11 354.60 C 687.67 352.89, 685.30 352.34, 681.27 353.83 C 677.24 355.33, 674.74 357.29, 668.98 362.06 C 663.22 366.83, 659.67 370.02, 652.46 377.68 C 645.25 385.34, 640.91 390.21, 632.93 400.36 C 624.95 410.51, 620.36 416.68, 612.55 428.44 C 604.74 440.19, 600.56 446.94, 593.87 459.15 C 587.19 471.36, 583.92 477.98, 579.14 489.50 C 574.36 501.02, 572.32 506.90, 569.99 516.73 C 567.66 526.56, 567.14 531.17, 567.50 538.65 C 567.86 546.13, 568.78 549.36, 571.77 554.12 C 574.77 558.88, 577.23 560.65, 582.48 562.47 C 587.72 564.29, 591.18 564.24, 598.00 563.22 C 604.82 562.20, 608.78 560.72, 616.57 557.37 C 624.35 554.02, 628.76 551.40, 636.91 546.48 C 645.06 541.56, 649.56 538.28, 657.30 532.76 C 665.04 527.25, 669.09 523.92, 675.62 518.90 C 682.14 513.89, 685.67 511.03, 689.94 507.69 C 694.20 504.34, 695.91 503.14, 696.95 502.19 C 697.99 501.24, 696.40 501.03, 695.15 502.94 C 693.89 504.85, 692.81 507.26, 690.69 511.73 C 688.57 516.21, 686.75 519.72, 684.55 525.31 C 682.35 530.90, 680.95 534.40, 679.70 539.67 C 678.45 544.95, 677.69 547.55, 678.28 551.69 C 678.87 555.83, 679.75 558.13, 682.65 560.38 C 685.55 562.62, 688.03 563.08, 692.78 562.92 C 697.54 562.75, 700.35 561.77, 706.40 559.56 C 712.45 557.35, 716.00 555.63, 723.04 551.87 C 730.09 548.11, 734.18 545.54, 741.62 540.76 C 749.06 535.98, 753.14 533.00, 760.25 527.99 C 767.36 522.98, 771.08 520.16, 777.18 515.71 C 783.29 511.27, 786.74 508.73, 790.77 505.78 C 794.81 502.83, 796.40 501.75, 797.35 500.96 C 798.31 500.16, 796.81 499.86, 795.55 501.82 C 794.29 503.78, 793.30 506.16, 791.05 510.77 C 788.80 515.38, 786.83 518.96, 784.29 524.87 C 781.76 530.78, 780.13 534.44, 778.37 540.32 C 776.61 546.20, 775.78 549.23, 775.48 554.29 C 775.18 559.34, 775.20 561.83, 776.86 565.58 C 778.51 569.33, 780.16 571.21, 783.74 573.04 C 787.31 574.87, 789.90 575.09, 794.74 574.73 C 799.57 574.36, 802.37 573.44, 807.89 571.20 C 813.42 568.95, 816.58 567.20, 822.35 563.49 C 828.13 559.78, 831.36 557.29, 836.77 552.64 C 842.18 547.99, 844.95 545.08, 849.40 540.23 C 853.86 535.39, 855.90 532.64, 859.06 528.42 C 862.22 524.21, 863.63 522.23, 865.21 519.14 C 866.79 516.06, 866.86 514.58, 866.96 513.00 C 867.06 511.42, 866.09 511.02, 865.70 511.24 C 865.32 511.47, 864.43 512.56, 865.05 514.13 C 865.67 515.70, 866.21 517.54, 868.80 519.11 C 871.38 520.68, 873.64 521.01, 877.97 521.97 C 882.30 522.92, 884.86 523.48, 890.44 523.88 C 896.02 524.27, 899.29 524.38, 905.87 523.94 C 912.44 523.50, 916.26 523.00, 923.31 521.66 C 930.37 520.33, 934.28 519.32, 941.13 517.27 C 947.98 515.21, 951.67 513.89, 957.58 511.38 C 963.49 508.88, 966.36 507.45, 970.67 504.76 C 974.98 502.07, 977.08 500.83, 979.13 497.93 C 981.19 495.03, 981.58 493.02, 980.93 490.27 C 980.29 487.52, 979.00 485.45, 975.91 484.19 C 972.82 482.93, 970.25 483.11, 965.48 483.96 C 960.71 484.81, 957.76 485.81, 952.06 488.44 C 946.36 491.07, 942.95 492.98, 936.97 497.12 C 931.00 501.26, 927.52 503.95, 922.18 509.13 C 916.84 514.30, 914.08 517.41, 910.27 522.98 C 906.46 528.54, 904.71 531.61, 903.14 536.95 C 901.57 542.29, 901.24 545.15, 902.41 549.69 C 903.58 554.23, 905.12 556.60, 908.97 559.64 C 912.83 562.67, 915.69 563.76, 921.68 564.86 C 927.67 565.95, 931.42 565.84, 938.91 565.11 C 946.40 564.39, 950.79 563.41, 959.13 561.21 C 967.48 559.01, 972.19 557.33, 980.64 554.10 C 989.09 550.87, 993.62 548.74, 1001.38 545.04 C 1009.15 541.35, 1013.05 539.15, 1019.48 535.64 C 1025.90 532.13, 1028.84 530.17, 1033.50 527.47 C 1038.16 524.78, 1040.32 523.94, 1042.77 522.15 C 1045.23 520.37, 1045.59 519.43, 1045.78 518.54 C 1045.97 517.64, 1045.02 517.36, 1043.74 517.67 C 1042.45 517.99, 1040.95 518.53, 1039.35 520.10 C 1037.75 521.67, 1036.79 523.08, 1035.74 525.52 C 1034.69 527.96, 1034.37 529.69, 1034.10 532.31 C 1033.84 534.93, 1033.71 536.45, 1034.44 538.62 C 1035.16 540.79, 1035.91 541.97, 1037.74 543.17 C 1039.57 544.37, 1040.98 544.92, 1043.58 544.63 C 1046.17 544.33, 1047.68 543.50, 1050.71 541.71 C 1053.73 539.92, 1055.21 538.32, 1058.71 535.67 C 1062.21 533.02, 1064.22 531.41, 1068.20 528.45 C 1072.18 525.49, 1074.42 523.78, 1078.61 520.88 C 1082.80 517.97, 1085.04 516.47, 1089.14 513.93 C 1093.25 511.39, 1095.34 510.17, 1099.16 508.19 C 1102.98 506.20, 1104.76 505.34, 1108.25 503.99 C 1111.73 502.63, 1113.34 502.23, 1116.57 501.43 C 1119.80 500.63, 1121.33 500.41, 1124.40 499.99 C 1127.46 499.58, 1128.81 499.54, 1131.91 499.36 C 1135.01 499.17, 1136.60 499.19, 1139.88 499.08 C 1143.17 498.97, 1144.87 498.91, 1148.34 498.79 C 1151.81 498.67, 1153.62 498.62, 1157.24 498.49 C 1160.86 498.35, 1162.83 498.21, 1166.42 498.11 C 1170.01 498.01, 1171.90 497.94, 1175.19 497.98 C 1178.47 498.01, 1180.16 498.23, 1182.85 498.28 C 1185.54 498.32, 1186.78 498.18, 1188.63 498.20 C 1190.49 498.22, 1191.25 498.35, 1192.14 498.39 C 1193.02 498.42, 1193.16 498.27, 1193.06 498.38 C 1192.96 498.49, 1192.53 498.38, 1191.63 498.95 C 1190.73 499.52, 1190.02 499.97, 1188.56 501.22 C 1187.10 502.46, 1186.18 503.38, 1184.34 505.16 C 1182.50 506.95, 1181.44 508.12, 1179.37 510.16 C 1177.29 512.20, 1176.06 513.28, 1173.97 515.36 C 1171.89 517.45, 1170.74 518.51, 1168.93 520.60 C 1167.12 522.68, 1166.27 523.75, 1164.92 525.79 C 1163.57 527.82, 1162.99 528.83, 1162.16 530.75 C 1161.33 532.68, 1161.04 533.59, 1160.78 535.42 C 1160.52 537.24, 1160.50 538.19, 1160.87 539.89 C 1161.25 541.59, 1161.60 542.50, 1162.64 543.92 C 1163.69 545.35, 1164.45 546.07, 1166.11 547.00 C 1167.76 547.94, 1168.77 548.26, 1170.92 548.61 C 1173.07 548.95, 1174.24 549.06, 1176.84 548.73 C 1179.44 548.40, 1180.87 548.07, 1183.93 546.97 C 1187.00 545.87, 1188.54 545.02, 1192.15 543.23 C 1195.76 541.44, 1197.75 540.46, 1202.00 538.02 C 1206.26 535.59, 1208.58 534.20, 1213.43 531.06 C 1218.29 527.92, 1220.91 526.13, 1226.29 522.33 C 1231.68 518.53, 1234.61 516.42, 1240.38 512.06 C 1246.15 507.71, 1249.22 505.33, 1255.15 500.56 C 1261.08 495.79, 1264.19 493.19, 1270.04 488.21 C 1275.88 483.23, 1278.85 480.64, 1284.37 475.66 C 1289.90 470.67, 1292.67 468.06, 1297.67 463.28 C 1302.67 458.51, 1305.10 456.00, 1309.38 451.78 C 1313.65 447.57, 1315.59 445.51, 1319.04 442.19 C 1322.49 438.88, 1324.13 437.46, 1326.62 435.21 C 1329.10 432.96, 1330.11 432.24, 1331.47 430.93 C 1332.83 429.62, 1333.09 429.16, 1333.40 428.66 C 1333.70 428.17, 1333.35 428.13, 1333.01 428.48 C 1332.66 428.82, 1332.09 429.16, 1331.65 430.39 C 1331.21 431.63, 1331.00 432.42, 1330.80 434.63 C 1330.59 436.85, 1330.86 438.28, 1330.63 441.47 C 1330.39 444.66, 1330.32 446.55, 1329.61 450.60 C 1328.90 454.64, 1328.39 456.92, 1327.07 461.70 C 1325.74 466.48, 1324.87 469.09, 1322.99 474.49 C 1321.12 479.89, 1320.01 482.83, 1317.67 488.69 C 1315.34 494.54, 1313.91 497.69, 1311.32 503.76 C 1308.74 509.83, 1307.27 513.00, 1304.73 519.03 C 1302.19 525.06, 1300.82 528.19, 1298.63 533.92 C 1296.44 539.66, 1295.29 542.51, 1293.78 547.69 C 1292.27 552.88, 1291.58 555.37, 1291.07 559.86 C 1290.56 564.36, 1290.38 566.53, 1291.22 570.17 C 1292.06 573.81, 1292.85 575.68, 1295.27 578.06 C 1297.69 580.44, 1299.57 581.34, 1303.32 582.08 C 1307.07 582.83, 1309.28 582.67, 1314.01 581.78 C 1318.75 580.88, 1321.33 580.04, 1327.02 577.62 C 1332.70 575.20, 1335.85 573.61, 1342.43 569.67 C 1349.00 565.73, 1352.63 563.31, 1359.89 557.91 C 1367.15 552.50, 1371.06 549.32, 1378.75 542.65 C 1386.44 535.98, 1390.53 532.14, 1398.33 524.54 C 1406.13 516.94, 1410.19 512.74, 1417.76 504.65 C 1425.34 496.56, 1429.18 492.22, 1436.21 484.09 C 1443.24 475.97, 1446.66 471.74, 1452.90 464.02 C 1459.13 456.30, 1462.10 452.46, 1467.36 445.49 C 1472.62 438.52, 1475.01 435.12, 1479.19 429.16 C 1483.37 423.20, 1486.91 418.69, 1488.27 415.69 C 1489.64 412.70, 1488.25 411.79, 1486.02 414.19 C 1483.79 416.60, 1481.24 421.75, 1477.12 427.72 C 1473.01 433.70, 1470.64 437.08, 1465.46 444.07 C 1460.27 451.05, 1457.37 454.93, 1451.21 462.67 C 1445.05 470.40, 1441.64 474.63, 1434.65 482.75 C 1427.67 490.87, 1423.83 495.20, 1416.27 503.25 C 1408.71 511.31, 1404.66 515.49, 1396.85 523.02 C 1389.05 530.54, 1384.95 534.34, 1377.24 540.89 C 1369.54 547.44, 1365.61 550.56, 1358.33 555.77 C 1351.05 560.97, 1347.39 563.28, 1340.84 566.92 C 1334.29 570.55, 1331.08 571.94, 1325.56 573.94 C 1320.05 575.93, 1317.47 576.39, 1313.25 576.89 C 1309.04 577.40, 1307.27 577.07, 1304.49 576.46 C 1301.71 575.85, 1300.97 575.35, 1299.35 573.83 C 1297.73 572.32, 1297.13 571.59, 1296.39 568.88 C 1295.64 566.16, 1295.37 564.29, 1295.61 560.26 C 1295.85 556.23, 1296.30 553.75, 1297.58 548.73 C 1298.85 543.71, 1299.91 540.85, 1301.98 535.17 C 1304.04 529.50, 1305.39 526.36, 1307.89 520.36 C 1310.40 514.35, 1311.88 511.19, 1314.51 505.13 C 1317.15 499.08, 1318.62 495.93, 1321.08 490.08 C 1323.55 484.24, 1324.73 481.30, 1326.83 475.91 C 1328.93 470.51, 1329.92 467.91, 1331.60 463.13 C 1333.28 458.34, 1333.96 456.06, 1335.25 451.98 C 1336.54 447.91, 1337.16 446.08, 1338.04 442.75 C 1338.93 439.42, 1339.51 437.93, 1339.68 435.33 C 1339.85 432.73, 1339.62 431.61, 1338.91 429.77 C 1338.20 427.92, 1337.47 427.07, 1336.15 426.12 C 1334.82 425.16, 1333.90 424.90, 1332.28 425.00 C 1330.65 425.10, 1329.89 425.33, 1328.01 426.62 C 1326.13 427.90, 1325.27 428.87, 1322.88 431.41 C 1320.49 433.95, 1319.25 435.73, 1316.06 439.32 C 1312.86 442.91, 1311.00 445.00, 1306.89 449.34 C 1302.77 453.69, 1300.39 456.21, 1295.49 461.04 C 1290.59 465.86, 1287.86 468.48, 1282.39 473.47 C 1276.92 478.46, 1273.97 481.04, 1268.14 485.98 C 1262.32 490.93, 1259.21 493.51, 1253.27 498.21 C 1247.34 502.90, 1244.26 505.24, 1238.46 509.48 C 1232.66 513.72, 1229.71 515.77, 1224.28 519.38 C 1218.84 523.00, 1216.19 524.69, 1211.28 527.54 C 1206.37 530.40, 1204.02 531.64, 1199.73 533.65 C 1195.44 535.66, 1193.42 536.42, 1189.83 537.60 C 1186.24 538.78, 1184.60 538.97, 1181.80 539.56 C 1179.00 540.14, 1177.83 540.29, 1175.82 540.53 C 1173.80 540.78, 1173.06 540.81, 1171.72 540.79 C 1170.39 540.78, 1169.94 540.67, 1169.16 540.47 C 1168.37 540.27, 1168.20 540.16, 1167.78 539.78 C 1167.37 539.39, 1167.23 539.19, 1167.09 538.54 C 1166.95 537.89, 1166.86 537.50, 1167.09 536.54 C 1167.33 535.58, 1167.53 535.04, 1168.27 533.74 C 1169.02 532.45, 1169.55 531.66, 1170.82 530.08 C 1172.10 528.49, 1172.91 527.61, 1174.64 525.83 C 1176.38 524.04, 1177.43 523.03, 1179.50 521.14 C 1181.57 519.24, 1182.79 518.21, 1185.01 516.35 C 1187.22 514.48, 1188.55 513.65, 1190.58 511.81 C 1192.61 509.97, 1193.73 509.08, 1195.14 507.14 C 1196.55 505.20, 1197.18 504.10, 1197.63 502.10 C 1198.08 500.11, 1198.01 498.90, 1197.39 497.16 C 1196.77 495.42, 1196.10 494.54, 1194.52 493.40 C 1192.94 492.26, 1191.80 491.95, 1189.48 491.45 C 1187.17 490.94, 1185.82 490.89, 1182.93 490.87 C 1180.04 490.86, 1178.38 491.17, 1175.03 491.36 C 1171.68 491.56, 1169.78 491.67, 1166.17 491.85 C 1162.57 492.03, 1160.62 492.16, 1157.02 492.27 C 1153.42 492.39, 1151.64 492.37, 1148.18 492.43 C 1144.71 492.49, 1143.02 492.49, 1139.68 492.59 C 1136.34 492.68, 1134.72 492.64, 1131.47 492.90 C 1128.21 493.15, 1126.70 493.26, 1123.42 493.86 C 1120.13 494.46, 1118.46 494.84, 1115.03 495.90 C 1111.59 496.97, 1109.87 497.58, 1106.24 499.19 C 1102.62 500.81, 1100.79 501.81, 1096.89 503.99 C 1092.99 506.16, 1090.91 507.45, 1086.74 510.07 C 1082.57 512.69, 1080.31 514.23, 1076.03 517.08 C 1071.74 519.94, 1069.46 521.63, 1065.33 524.35 C 1061.20 527.08, 1059.05 528.56, 1055.38 530.69 C 1051.72 532.82, 1049.73 533.60, 1046.98 535.02 C 1044.24 536.45, 1043.07 536.98, 1041.66 537.82 C 1040.24 538.66, 1040.14 539.14, 1039.92 539.21 C 1039.70 539.28, 1040.04 539.08, 1040.55 538.18 C 1041.05 537.28, 1041.48 536.37, 1042.45 534.70 C 1043.41 533.04, 1044.41 531.92, 1045.39 529.84 C 1046.37 527.76, 1046.99 526.44, 1047.34 524.29 C 1047.69 522.15, 1047.62 520.70, 1047.14 519.12 C 1046.66 517.54, 1046.37 516.65, 1044.93 516.40 C 1043.50 516.15, 1042.63 516.28, 1039.95 517.88 C 1037.28 519.48, 1035.94 521.36, 1031.55 524.41 C 1027.17 527.45, 1024.30 529.44, 1018.03 533.09 C 1011.77 536.74, 1007.90 538.94, 1000.24 542.65 C 992.57 546.36, 988.07 548.47, 979.70 551.63 C 971.34 554.79, 966.64 556.41, 958.43 558.46 C 950.21 560.50, 945.84 561.33, 938.63 561.87 C 931.42 562.42, 927.81 562.27, 922.38 561.19 C 916.94 560.10, 914.68 558.96, 911.45 556.46 C 908.23 553.97, 907.21 552.40, 906.24 548.70 C 905.28 545.00, 905.28 542.73, 906.64 537.96 C 908.00 533.19, 909.48 530.15, 913.04 524.86 C 916.61 519.56, 919.27 516.45, 924.45 511.49 C 929.64 506.53, 933.09 503.89, 938.95 500.05 C 944.80 496.22, 948.27 494.50, 953.73 492.33 C 959.20 490.15, 962.19 489.68, 966.27 489.19 C 970.34 488.71, 971.97 489.51, 974.10 489.91 C 976.23 490.30, 976.73 490.18, 976.92 491.17 C 977.12 492.16, 976.78 492.81, 975.08 494.84 C 973.38 496.88, 972.19 498.67, 968.41 501.34 C 964.62 504.01, 961.82 505.62, 956.18 508.18 C 950.53 510.74, 946.87 512.09, 940.18 514.12 C 933.49 516.15, 929.61 517.13, 922.71 518.34 C 915.81 519.55, 912.03 519.97, 905.68 520.16 C 899.33 520.35, 896.13 520.12, 890.97 519.29 C 885.81 518.46, 883.41 517.58, 879.89 516.01 C 876.37 514.43, 875.56 512.66, 873.36 511.40 C 871.16 510.14, 870.47 510.02, 868.89 509.69 C 867.31 509.36, 866.63 509.37, 865.44 509.74 C 864.25 510.11, 863.92 510.13, 862.93 511.53 C 861.94 512.94, 861.93 513.86, 860.50 516.78 C 859.07 519.70, 858.50 521.90, 855.76 526.12 C 853.02 530.34, 851.05 533.10, 846.80 537.88 C 842.56 542.67, 839.83 545.55, 834.55 550.05 C 829.27 554.56, 826.04 556.95, 820.41 560.40 C 814.78 563.86, 811.59 565.40, 806.39 567.33 C 801.19 569.26, 798.50 569.79, 794.40 570.06 C 790.30 570.33, 788.57 569.94, 785.90 568.68 C 783.23 567.41, 782.31 566.56, 781.06 563.73 C 779.81 560.90, 779.42 558.97, 779.66 554.53 C 779.90 550.08, 780.50 547.08, 782.26 541.52 C 784.02 535.96, 785.82 532.46, 788.48 526.74 C 791.14 521.03, 793.28 517.68, 795.56 512.96 C 797.84 508.24, 799.63 506.07, 799.88 503.15 C 800.12 500.23, 799.04 498.45, 796.78 498.36 C 794.52 498.27, 792.87 499.73, 788.59 502.72 C 784.31 505.71, 781.37 508.71, 775.39 513.32 C 769.41 517.94, 765.74 520.77, 758.69 525.78 C 751.63 530.79, 747.54 533.74, 740.12 538.39 C 732.70 543.04, 728.57 545.52, 721.57 549.03 C 714.58 552.53, 710.93 554.03, 705.14 555.90 C 699.35 557.77, 696.54 558.24, 692.63 558.38 C 688.71 558.51, 687.50 558.01, 685.56 556.56 C 683.62 555.11, 683.22 554.29, 682.94 551.13 C 682.66 547.98, 682.89 545.57, 684.15 540.78 C 685.40 536.00, 686.95 532.58, 689.20 527.20 C 691.46 521.82, 693.41 518.50, 695.43 513.89 C 697.45 509.28, 699.17 507.00, 699.30 504.15 C 699.44 501.30, 698.40 499.49, 696.10 499.64 C 693.81 499.80, 692.24 501.52, 687.80 504.94 C 683.37 508.36, 680.30 511.58, 673.91 516.73 C 667.51 521.89, 663.51 525.22, 655.84 530.72 C 648.17 536.23, 643.66 539.45, 635.58 544.25 C 627.50 549.05, 623.05 551.55, 615.44 554.72 C 607.84 557.88, 603.92 559.13, 597.53 560.07 C 591.15 561.01, 588.17 560.91, 583.51 559.41 C 578.84 557.90, 576.94 556.74, 574.22 552.56 C 571.50 548.38, 570.37 545.59, 569.91 538.52 C 569.46 531.44, 569.77 526.85, 571.94 517.18 C 574.11 507.51, 576.08 501.61, 580.76 490.16 C 585.44 478.72, 588.69 472.10, 595.33 459.95 C 601.98 447.79, 606.16 441.07, 613.99 429.39 C 621.81 417.72, 626.41 411.58, 634.47 401.59 C 642.53 391.59, 646.94 386.80, 654.27 379.43 C 661.60 372.06, 665.36 369.09, 671.10 364.74 C 676.84 360.39, 679.71 359.41, 682.97 357.67 C 686.23 355.93, 686.89 355.45, 687.41 356.05 C 687.93 356.65, 687.69 357.38, 685.57 360.67 C 683.45 363.95, 681.87 366.90, 676.80 372.50 C 671.73 378.09, 668.12 381.73, 660.22 388.65 C 652.31 395.57, 647.26 399.71, 637.27 407.08 C 627.29 414.46, 621.39 418.58, 610.28 425.53 C 599.17 432.47, 592.98 436.07, 581.72 441.80 C 570.47 447.53, 564.52 450.26, 554.01 454.18 C 543.51 458.10, 538.18 459.71, 529.19 461.41 C 520.20 463.10, 515.87 463.30, 509.04 462.66 C 502.21 462.03, 499.42 460.99, 495.04 458.24 C 490.67 455.48, 489.09 453.53, 487.17 448.88 C 485.24 444.24, 484.89 441.20, 485.40 435.02 C 485.92 428.84, 486.94 424.96, 489.75 417.99 C 492.55 411.03, 494.75 406.99, 499.44 400.21 C 504.12 393.43, 507.25 389.74, 513.17 384.10 C 519.09 378.45, 522.72 375.74, 529.04 372.00 C 535.36 368.26, 538.82 366.80, 544.75 365.41 C 550.68 364.03, 553.72 363.94, 558.70 365.09 C 563.69 366.24, 566.04 367.42, 569.67 371.14 C 573.30 374.87, 574.86 377.36, 576.85 383.72 C 578.84 390.09, 579.59 394.15, 579.61 402.96 C 579.63 411.78, 579.20 417.05, 576.93 427.81 C 574.65 438.56, 572.84 444.74, 568.24 456.73 C 563.64 468.71, 560.56 475.41, 553.92 487.72 C 547.29 500.02, 543.21 506.63, 535.09 518.25 C 526.96 529.86, 522.26 535.86, 513.28 545.79 C 504.29 555.73, 499.24 560.51, 490.16 567.93 C 481.09 575.34, 476.28 578.47, 467.91 582.86 C 459.54 587.25, 455.37 588.63, 448.33 589.88 C 441.29 591.12, 437.97 590.92, 432.70 589.09 C 427.43 587.26, 425.15 585.71, 421.99 580.74 C 418.82 575.77, 417.54 572.33, 416.89 564.25 C 416.24 556.18, 416.55 550.87, 418.72 540.35 C 420.90 529.82, 422.96 523.38, 427.77 511.63 C 432.57 499.89, 436.03 493.12, 442.75 481.62 C 449.46 470.12, 453.75 464.07, 461.32 454.13 C 468.90 444.19, 473.26 439.49, 480.61 431.92 C 487.96 424.35, 491.69 421.18, 498.08 416.30 C 504.46 411.43, 507.40 409.73, 512.54 407.56 C 517.68 405.39, 520.06 405.62, 523.79 405.45 C 527.52 405.28, 528.74 406.42, 531.20 406.69 C 533.65 406.96, 534.85 407.38, 536.07 406.82 C 537.28 406.25, 537.97 405.20, 537.26 403.86" style="stroke: black; fill: black;"/><path d="M 1471.18,542.83 C 1472.56 543.63, 1474.13 544.57, 1477.70 543.97 C 1481.27 543.36, 1487.12 541.72, 1489.03 539.78 C 1490.94 537.84, 1489.86 534.75, 1487.26 534.26 C 1484.65 533.77, 1479.29 536.19, 1476.00 537.33 C 1472.71 538.47, 1471.78 538.87, 1470.81 539.97 C 1469.85 541.07, 1469.80 542.03, 1471.18 542.83" style="stroke: black; fill: black;"/></svg>